<svg xmlns="http://www.w3.org/2000/svg" viewBox="0 0 40 40">
  <path d="M33.9 3.5L21.3 12.9l2.3-5.6L33.9 3.5z" fill="#E2761B" stroke="#E2761B" stroke-width=".1"/>
  <path d="M6.1 3.5l12.5 9.5-2.2-5.7L6.1 3.5zM29.5 27.6l-3.4 5.1 7.2 2 2.1-7-5.9-.1zM4.6 27.7l2 7 7.2-2-3.3-5.1-5.9.1z" fill="#E4761B" stroke="#E4761B" stroke-width=".1"/>
  <path d="M13.4 17.3l-2 3.1 7.2.3-.3-7.7-4.9 4.3zM26.6 17.3l-5-4.4-.2 7.8 7.2-.3-2-3.1zM13.8 32.7l4.3-2.1-3.7-2.9-.6 5zM21.9 30.6l4.3 2.1-.6-5-3.7 2.9z" fill="#E4761B" stroke="#E4761B" stroke-width=".1"/>
  <path d="M26.2 32.7l-4.3-2.1.3 2.8-.1 1.2 4.1-1.9zM13.8 32.7l4.1 1.9-.1-1.2.3-2.8-4.3 2.1z" fill="#D7C1B3" stroke="#D7C1B3" stroke-width=".1"/>
  <path d="M18 25.7l-3.6-1.1 2.5-1.2 1.1 2.3zM22 25.7l1.1-2.3 2.6 1.2-3.7 1.1z" fill="#233447" stroke="#233447" stroke-width=".1"/>
  <path d="M13.8 32.7l.6-5.1-3.9.1 3.3 5zM25.6 27.6l.6 5.1 3.3-5-3.9-.1zM28.6 20.4l-7.2.3.7 3.8 1.1-2.3 2.6 1.2 2.8-3zM14.4 22.4l2.5-1.2 1.1 2.3.7-3.8-7.2-.3 2.9 3z" fill="#CD6116" stroke="#CD6116" stroke-width=".1"/>
  <path d="M11.4 20.4l3 5.8-.1-2.9-2.9-2.9zM25.8 23.3l-.1 2.9 3-5.8-2.9 2.9zM18.7 20.7l-.7 3.8.9 4.4.2-5.8-.4-2.4zM21.4 20.7l-.3 2.3.1 5.9.9-4.4-.7-3.8z" fill="#E4751F" stroke="#E4751F" stroke-width=".1"/>
  <path d="M22.1 24.5l-.9 4.4.6.5 3.7-2.9.1-2.9-3.5 1zM14.4 23.6l.1 2.9 3.7 2.9.6-.5-.9-4.4-3.5-1z" fill="#F6851B" stroke="#F6851B" stroke-width=".1"/>
  <path d="M22.2 34.6l.1-1.2-.3-.3h-4l-.3.3.1 1.2-4.1-1.9 1.4 1.2 2.9 2h4.1l2.9-2 1.4-1.2-4.2 1.9z" fill="#C0AD9E" stroke="#C0AD9E" stroke-width=".1"/>
  <path d="M21.9 30.6l-.6-.5h-2.6l-.6.5-.3 2.8.3-.3h4l.3.3-.5-2.8z" fill="#161616" stroke="#161616" stroke-width=".1"/>
  <path d="M34.5 13.5l1.1-5.2L33.9 3.5l-12 8.9 4.6 3.9 6.5 1.9 1.4-1.7-.6-.5 1-1-.8-.6 1-.8-.6-.5 1-1-.7-.6zM4.4 8.3l1.1 5.2-1.4.6 1 1-.6.5 1 .8-.8.6 1 1-.6.5 1.4 1.7 6.5-1.9 4.6-3.9L6.1 3.5 4.4 8.3z" fill="#763D16" stroke="#763D16" stroke-width=".1"/>
  <path d="M32.9 18.2l-6.5-1.9 2 3.1-3 5.8 3.9-.1h5.9l-2.3-7zM13.5 16.3L7 18.2l-2.4 7H10.6l3.9.1-3-5.8 2-3.1zM21.4 20.7l.4-7.2 1.9-5.2h-7.4l1.8 5.2.5 7.2.1 2.4v5.8h2.6l.1-5.8v-2.4z" fill="#F6851B" stroke="#F6851B" stroke-width=".1"/>
</svg>
