<svg xmlns="http://www.w3.org/2000/svg" viewBox="0 0 40 40">
  <defs>
    <linearGradient id="pg" x1="0%" y1="0%" x2="100%" y2="100%">
      <stop offset="0%" stop-color="#534BB1"/>
      <stop offset="100%" stop-color="#551BF9"/>
    </linearGradient>
  </defs>
  <rect width="40" height="40" rx="8" fill="url(#pg)"/>
  <path d="M30.5 20.5c0 6.1-5 11-11.2 11h-1.8c-.4 0-.6-.4-.4-.7l.9-1.3c.1-.2.3-.3.5-.3h1c4.7 0 8.5-3.8 8.5-8.4 0-4.7-3.8-8.5-8.5-8.5-4.6 0-8.4 3.6-8.5 8.2v.5c0 .3-.3.5-.5.5h-1.6c-.3 0-.5-.2-.5-.5v-.5C9.4 14.4 14.6 9.5 21 9.5c5.3 0 9.5 4.9 9.5 11z" fill="#fff"/>
  <circle cx="16" cy="20.5" r="2" fill="#fff"/>
  <circle cx="22.5" cy="20.5" r="2" fill="#fff"/>
</svg>
